<svg xmlns="http://www.w3.org/2000/svg" xmlns:xlink="http://www.w3.org/1999/xlink"><symbol viewbox="0 0 47 47" id="about" xmlns="http://www.w3.org/2000/svg"><defs><style>.acls-1{fill:#9e9e9e;fill-rule:evenodd}</style></defs><path id="icon" class="acls-1" d="M599.016 1667.99H583.01v-2h16.006v2zm0 6H583.01v-2h16.006v2zm0 6.01H583.01v-2h16.006v2zm0 6h-29v-2h29v2zm0 6h-29v-2h29v2zM579 1666.99a1 1 0 011 1v9a1 1 0 01-1 1h-7a1 1 0 01-1-1v-9a1 1 0 011-1h7m0-1h-7a2 2 0 00-2 2v9a2 2 0 002 2h7a2 2 0 002-2v-9a2 2 0 00-2-2zm5.5 37.01a23.5 23.5 0 1123.5-23.5 23.525 23.525 0 01-23.5 23.5zm0-46a22.5 22.5 0 1022.5 22.5 22.524 22.524 0 00-22.5-22.5z" transform="translate(-561 -1656)"/></symbol><symbol viewbox="0 0 12.438 8.44" id="check" xmlns="http://www.w3.org/2000/svg"><defs><style>.bcls-1{fill:#fff;fill-rule:evenodd}</style></defs><path class="bcls-1" d="M12.426 1.43l-7 7-.207-.21-.207.21-5-5 1.414-1.42 3.793 3.8 5.793-5.8z"/></symbol><symbol viewbox="0 0 12.969 7.969" id="chevron-down" xmlns="http://www.w3.org/2000/svg"><defs><style>.ccls-1{fill:#435993;fill-rule:evenodd}</style></defs><path id="Shape_2_copy" data-name="Shape 2 copy" class="ccls-1" d="M727.763 600.234l-5.146 5.146.148.148-1.341 1.34-.148-.148-.148.148-1.34-1.34.148-.148-5.146-5.146 1.341-1.34 5.145 5.145 5.146-5.145z" transform="translate(-714.781 -598.906)"/></symbol><symbol id="close" viewbox="0 0 386.667 386.667" xmlns="http://www.w3.org/2000/svg"><path d="M386.667 45.564L341.103 0l-147.77 147.769L45.564 0 0 45.564l147.769 147.769L0 341.103l45.564 45.564 147.769-147.769 147.769 147.769 45.564-45.564-147.768-147.77z"/></symbol><symbol viewbox="0 0 47 47" id="experience" xmlns="http://www.w3.org/2000/svg"><defs><style>.ecls-1{fill:#9e9e9e;fill-rule:evenodd}</style></defs><path class="ecls-1" d="M14.5 16.99h-1a2.5 2.5 0 01-2.5-2.5v-1a2.5 2.5 0 012.5-2.5h1a2.5 2.5 0 012.5 2.5v1a2.5 2.5 0 01-2.5 2.5zm-1-5a1.5 1.5 0 00-1.5 1.5v1a1.5 1.5 0 001.5 1.5h1a1.5 1.5 0 001.5-1.5v-1a1.5 1.5 0 00-1.5-1.5h-1zm22.51 3h-16v-2h16v2zM14.5 27h-1a2.5 2.5 0 01-2.5-2.5v-1a2.5 2.5 0 012.5-2.5h1a2.5 2.5 0 012.5 2.5v1a2.5 2.5 0 01-2.5 2.5zm-1-5a1.5 1.5 0 00-1.5 1.5v1a1.5 1.5 0 001.5 1.5h1a1.5 1.5 0 001.5-1.5v-1a1.5 1.5 0 00-1.5-1.5h-1zm22.51 3h-16v-2h16v2zM14.5 37h-1a2.5 2.5 0 01-2.5-2.5v-1a2.5 2.5 0 012.5-2.5h1a2.5 2.5 0 012.5 2.5v1a2.5 2.5 0 01-2.5 2.5zm-1-5a1.5 1.5 0 00-1.5 1.5v1a1.5 1.5 0 001.5 1.5h1a1.5 1.5 0 001.5-1.5v-1a1.5 1.5 0 00-1.5-1.5h-1zm22.51 3h-16v-2h16v2zM23.5 47A23.5 23.5 0 1147 23.5 23.527 23.527 0 0123.5 47zm0-46A22.5 22.5 0 1046 23.5 22.526 22.526 0 0023.5 1z"/></symbol><symbol viewbox="0 0 47 47" id="js" xmlns="http://www.w3.org/2000/svg"><defs><style>.fcls-1{fill:#9e9e9e;fill-rule:evenodd}</style></defs><path id="icon" class="fcls-1" d="M578.356 1354h2.649v11.06a5.524 5.524 0 01-.374 2.09 4.359 4.359 0 01-1.04 1.55 4.483 4.483 0 01-1.582.95 5.849 5.849 0 01-2 .33 6.763 6.763 0 01-2.012-.28 4.106 4.106 0 01-1.583-.86 3.967 3.967 0 01-1.036-1.48 5.33 5.33 0 01-.372-2.08h2.649a3.406 3.406 0 00.174 1.16 2 2 0 00.483.78 1.967 1.967 0 00.741.44 3.183 3.183 0 00.956.14 2.427 2.427 0 00.946-.18 2.063 2.063 0 00.742-.53 2.426 2.426 0 00.484-.85 3.694 3.694 0 00.173-1.18V1354zm14.856 11.77a2.273 2.273 0 00-.144-.84 1.671 1.671 0 00-.523-.68 4.347 4.347 0 00-1.049-.59 16.681 16.681 0 00-1.715-.6 17.463 17.463 0 01-2.117-.75 7.47 7.47 0 01-1.671-1 4.207 4.207 0 01-1.1-1.3 3.5 3.5 0 01-.4-1.69 3.7 3.7 0 01.414-1.73 4.122 4.122 0 011.163-1.36 5.439 5.439 0 011.8-.9 7.693 7.693 0 012.316-.32 7.155 7.155 0 012.438.38 5.338 5.338 0 011.825 1.03 4.483 4.483 0 011.142 1.51 4.287 4.287 0 01.4 1.83h-2.779a2.913 2.913 0 00-.182-1.04 2.134 2.134 0 00-.557-.82 2.635 2.635 0 00-.949-.54 4.23 4.23 0 00-1.357-.19 4.415 4.415 0 00-1.279.16 2.51 2.51 0 00-.9.44 1.816 1.816 0 00-.53.69 2.133 2.133 0 00-.17.85 1.687 1.687 0 00.844 1.44 8.765 8.765 0 002.575 1.07 14.917 14.917 0 012.349.86 6.526 6.526 0 011.649 1.06 3.827 3.827 0 01.976 1.33 4.229 4.229 0 01.32 1.68 3.732 3.732 0 01-1.55 3.1 5.457 5.457 0 01-1.8.84 8.664 8.664 0 01-2.36.29 8.823 8.823 0 01-2.283-.3 6.482 6.482 0 01-2.019-.92 4.889 4.889 0 01-1.44-1.53 4.146 4.146 0 01-.545-2.16h2.79a2.811 2.811 0 00.27 1.27 2.356 2.356 0 00.74.86 2.993 2.993 0 001.108.49 5.509 5.509 0 001.379.16 3.535 3.535 0 002.19-.57 1.829 1.829 0 00.731-1.51zM584.5 1386a23.5 23.5 0 1123.5-23.5 23.525 23.525 0 01-23.5 23.5zm0-46a22.5 22.5 0 1022.5 22.5 22.524 22.524 0 00-22.5-22.5z" transform="translate(-561 -1339)"/></symbol><symbol viewbox="0 -53 384 384" id="menu" xmlns="http://www.w3.org/2000/svg"><path d="M368 154.668H16c-8.832 0-16-7.168-16-16s7.168-16 16-16h352c8.832 0 16 7.168 16 16s-7.168 16-16 16zm0 0"/><path d="M368 32H16C7.168 32 0 24.832 0 16S7.168 0 16 0h352c8.832 0 16 7.168 16 16s-7.168 16-16 16zm0 0"/><path d="M368 277.332H16c-8.832 0-16-7.168-16-16s7.168-16 16-16h352c8.832 0 16 7.168 16 16s-7.168 16-16 16zm0 0"/></symbol><symbol viewbox="0 0 47 47" id="personal-data" xmlns="http://www.w3.org/2000/svg"><defs><style>.hcls-1{fill:#9e9e9e;fill-rule:evenodd}</style></defs><path id="icon" class="hcls-1" d="M592.847 344.311l-20.5 1.7c-.014 0-.026.008-.04.008h-.136a1.151 1.151 0 00-1.171 1.132v25.721a1.15 1.15 0 001.172 1.128h.136c.014 0 .026.008.04.008l.091-.008H591.3a1.15 1.15 0 001.169-1.131v-.528l.378-.032a1.141 1.141 0 001.147-1.133v-25.732a1.141 1.141 0 00-1.147-1.133zm-1.9 28.561a.135.135 0 01-.146.12h-18.629a.135.135 0 01-.146-.12v-25.721a.137.137 0 01.146-.122H590.8a.137.137 0 01.146.122v25.721zm2.025-1.693a.124.124 0 01-.124.122h-.093l-.788.025v-24.175a1.151 1.151 0 00-1.169-1.132h-5.9l7.971-.695a.123.123 0 01.1.12v25.735zm-6.1-4.178h-10.736a1.166 1.166 0 00-1.131 1.2v.6a1.165 1.165 0 001.131 1.2h10.739a1.165 1.165 0 001.131-1.2v-.6a1.166 1.166 0 00-1.131-1.201zm.131 1.8a.183.183 0 01-.131.2h-10.736a.182.182 0 01-.131-.2v-.6a.181.181 0 01.131-.2h10.739a.181.181 0 01.131.2v.6zM581.5 363a6.5 6.5 0 116.5-6.5 6.5 6.5 0 01-6.5 6.5zm0-12a5.5 5.5 0 105.5 5.5 5.5 5.5 0 00-5.5-5.5zm1 32a23.5 23.5 0 1123.5-23.5 23.527 23.527 0 01-23.5 23.5zm0-46a22.5 22.5 0 1022.5 22.5 22.526 22.526 0 00-22.5-22.5z" transform="translate(-559 -336)"/></symbol><symbol viewbox="0 0 22.968 26" id="range-pointer" xmlns="http://www.w3.org/2000/svg"><defs><style>.icls-1{fill:#fff;stroke:#b0b0b0;stroke-linejoin:round;stroke-width:1px;fill-rule:evenodd}</style></defs><path id="Rounded_Rectangle_4" data-name="Rounded Rectangle 4" class="icls-1" d="M594.791 1572.84a11 11 0 11-16.137-9.71l3.714-3.71a2 2 0 012.824 0l3.684 3.68a11 11 0 015.915 9.74z" transform="translate(-572.313 -1558.34)"/></symbol></svg>